<svg width="238" height="238" viewBox="0 0 238 238" fill="none" xmlns="http://www.w3.org/2000/svg">
<rect width="237.082" height="237.082" rx="29.2798" fill="#A1F800"/>
<path d="M138.904 64.6247C145.636 58.2102 153.293 55.0029 161.876 55.0029H212.238C212.574 55.0029 212.827 55.1295 212.995 55.3827C213.247 55.5515 213.374 55.8047 213.374 56.1423V180.592C213.374 180.845 213.247 181.098 212.995 181.351C212.827 181.52 212.574 181.605 212.238 181.605H189.14C188.887 181.605 188.635 181.52 188.382 181.351C188.214 181.098 188.13 180.845 188.13 180.592V76.7784H167.051C164.19 76.7784 161.666 77.8334 159.478 79.9435L57.7454 181.351C57.4929 181.52 57.2405 181.605 56.988 181.605H24.8022C24.2973 181.605 23.9607 181.394 23.7924 180.972C23.6241 180.55 23.7083 180.17 24.0448 179.832L138.904 64.6247Z" fill="black"/>
</svg>
